<?xml version="1.0" encoding="utf-8"?>
<!-- Generator: Adobe Illustrator 27.5.0, SVG Export Plug-In . SVG Version: 6.00 Build 0)  -->
<svg version="1.1" xmlns="http://www.w3.org/2000/svg" xmlns:xlink="http://www.w3.org/1999/xlink" x="0px" y="0px"
	 viewBox="0 0 750 500" style="enable-background:new 0 0 750 500;" xml:space="preserve">
<g id="BACKGROUND">
	<g>
		<g>
			<rect style="fill:#FFFFFF;" width="750" height="500"/>
		</g>
	</g>
</g>
<g id="OBJECTS">
	<g>
		<rect x="85.511" y="34.843" style="fill:#DFE1E3;" width="578.978" height="412.565"/>
		<rect x="353.476" y="217.647" style="fill:#DFE1E3;" width="130.392" height="94.284"/>
		<rect x="85.511" y="34.843" style="fill:#454B60;" width="578.978" height="46.16"/>
		<rect x="85.511" y="81.003" style="fill:#DFE1E3;" width="578.978" height="6.197"/>
		<rect x="353.476" y="217.913" style="fill:#FFFFFF;" width="126.845" height="90.387"/>
		<rect x="353.476" y="217.913" style="fill:#454B60;" width="126.845" height="20.582"/>
		<path style="fill:#FFFFFF;" d="M624.332,49.41h-33.94h-46.831h-33.94c-4.386,0-7.943,3.556-7.943,7.942
			c0,4.386,3.556,7.943,7.943,7.943h33.94h46.831h33.94c4.386,0,7.941-3.557,7.941-7.943
			C632.273,52.966,628.718,49.41,624.332,49.41z"/>
		<g>
			<text transform="matrix(1 0 0 1 361.5743 231.7845)" style="fill:#E6E7E8; font-family:'Raleway-Regular'; font-size:7.0933px;">Lorem Lorem ipsum </text>
		</g>
		<text transform="matrix(1 0 0 1 162.5524 61.4026)" style="fill:#FFFFFF; font-family:'Raleway-Regular'; font-size:7.0933px;">Lorem Lorem ipsum </text>
		<line style="fill:none;stroke:#FFFFFF;stroke-miterlimit:10;" x1="148.788" y1="45.247" x2="148.788" y2="72.778"/>
		<g>
			<g>
				<g>
					<path style="fill:#454B60;" d="M516.758,188.982c-1.118,0-2.156-0.561-2.773-1.5c-0.491-0.748-0.665-1.643-0.488-2.524
						c0.174-0.878,0.679-1.636,1.419-2.134c0.546-0.366,1.182-0.561,1.837-0.561c1.118,0,2.156,0.561,2.774,1.502
						c0.492,0.747,0.665,1.645,0.489,2.523c-0.176,0.88-0.68,1.638-1.42,2.133C518.047,188.789,517.411,188.982,516.758,188.982z
						 M516.752,183.572c-0.399,0-0.786,0.119-1.119,0.344c-0.452,0.303-0.759,0.765-0.867,1.302c-0.107,0.537,0,1.083,0.299,1.539
						c0.377,0.575,1.01,0.916,1.693,0.916c0.399,0,0.786-0.119,1.12-0.344c0.452-0.302,0.759-0.765,0.867-1.301
						c0.107-0.536,0.001-1.082-0.299-1.539C518.067,183.915,517.434,183.572,516.752,183.572z"/>
					<polygon style="fill:#454B60;" points="519.768,191.388 517.697,188.238 518.776,187.512 520.847,190.664 					"/>
				</g>
			</g>
			<g>
				<g>
					<path style="fill:#454B60;" d="M519.348,153.867c-0.316,0-0.606,0.108-0.837,0.288l-2.394-1.451
						c0.014-0.075,0.019-0.15,0.019-0.227c0-0.078-0.005-0.152-0.019-0.227l2.394-1.449c0.231,0.18,0.521,0.287,0.837,0.287
						c0.759,0,1.374-0.622,1.374-1.39c0-0.766-0.615-1.388-1.374-1.388c-0.761,0-1.376,0.622-1.376,1.388
						c0,0.078,0.007,0.154,0.021,0.227l-2.394,1.452c-0.232-0.18-0.521-0.29-0.837-0.29c-0.759,0-1.376,0.622-1.376,1.389
						c0,0.768,0.616,1.39,1.376,1.39c0.316,0,0.604-0.108,0.837-0.29l2.394,1.451c-0.014,0.075-0.021,0.151-0.021,0.229
						c0,0.768,0.615,1.388,1.376,1.388c0.759,0,1.374-0.621,1.374-1.388C520.723,154.489,520.108,153.867,519.348,153.867z"/>
				</g>
			</g>
			<path style="fill:#454B60;" d="M516.885,212.236c-2.383,0-4.314,1.951-4.314,4.359c0,2.408,1.931,4.359,4.314,4.359
				c2.383,0,4.316-1.951,4.316-4.359C521.201,214.186,519.268,212.236,516.885,212.236z M516.885,219.864
				c-1.784,0-3.236-1.466-3.236-3.27c0-1.802,1.452-3.27,3.236-3.27c1.784,0,3.236,1.467,3.236,3.27
				C520.121,218.398,518.669,219.864,516.885,219.864z M519.582,216.594c0,0.302-0.242,0.546-0.539,0.546h-2.159
				c-0.296,0-0.54-0.244-0.54-0.546v-2.179c0-0.301,0.244-0.544,0.54-0.544c0.298,0,0.54,0.244,0.54,0.544v1.635h1.618
				C519.34,216.05,519.582,216.295,519.582,216.594z"/>
			<g>
				<g>
					<g>
						<path style="fill:#454B60;" d="M514.731,250.836c0.514,0,0.93,0.42,0.93,0.939s-0.416,0.942-0.93,0.942
							c-0.514,0-0.931-0.423-0.931-0.942S514.217,250.836,514.731,250.836z"/>
						<path style="fill:#454B60;" d="M518.794,250.836c0.514,0,0.931,0.42,0.931,0.939s-0.417,0.942-0.931,0.942
							c-0.514,0-0.931-0.423-0.931-0.942S518.28,250.836,518.794,250.836z"/>
						<path style="fill:#454B60;" d="M521.166,245.679c-1.191,0-5.747,0-5.747,0s-0.341,0.078-0.341,0.455
							c0,0.378,0.341,0.488,0.341,0.488h5.154l-0.291,0.989c-1.41,0-5.065,0-5.065,0s-0.316,0.072-0.316,0.424
							c0,0.352,0.316,0.454,0.316,0.454h4.798h0.01l-0.27,0.927h-5.23l-0.346-2.794l-0.114-0.942c0,0-0.1-0.87-0.158-1.227
							c-0.058-0.363-0.951-0.815-2.871-1.729c-0.452-0.191-0.829,0.643,0,1.081l1.514,0.712c0,0,0.353,0.208,0.382,0.485
							c0.029,0.28,0.646,4.882,0.646,4.882s0.024,0.64,0.6,0.64c0.576,0,5.298,0,5.78,0c0.484,0,0.578-0.51,0.578-0.51l1.146-3.436
							C521.681,246.577,522.019,245.679,521.166,245.679z"/>
					</g>
				</g>
				<g>
					<text transform="matrix(1 0 0 1 506.2887 123.9671)" style="fill:#454B60; font-family:'Raleway-Bold'; font-size:11.3492px;">Lorem Lorem ipsum </text>
				</g>
				<g>
					
						<text transform="matrix(1 0 0 1 532.3497 155.637)" style="fill:#454B60; font-family:'Raleway-Regular'; font-size:7.0933px;">Lorem Lorem ipsum </text>
				</g>
				<g>
					
						<text transform="matrix(1 0 0 1 564.2687 280.8894)" style="fill:#454B60; font-family:'Raleway-Regular'; font-size:7.0933px;">Lorem Lorem ipsum </text>
				</g>
				<g>
					
						<text transform="matrix(1 0 0 1 532.3497 187.5628)" style="fill:#454B60; font-family:'Raleway-Regular'; font-size:7.0933px;">Lorem Lorem ipsum </text>
				</g>
				<g>
					
						<text transform="matrix(1 0 0 1 532.3497 218.0706)" style="fill:#454B60; font-family:'Raleway-Regular'; font-size:7.0933px;">Lorem Lorem ipsum </text>
				</g>
				<g>
					
						<text transform="matrix(1 0 0 1 532.3497 249.9964)" style="fill:#454B60; font-family:'Raleway-Regular'; font-size:7.0933px;">Lorem Lorem ipsum </text>
				</g>
				
					<line style="fill:none;stroke:#808184;stroke-width:0.5;stroke-miterlimit:10;" x1="501.679" y1="131.586" x2="635.11" y2="131.586"/>
				
					<line style="fill:none;stroke:#808184;stroke-width:0.5;stroke-miterlimit:10;" x1="501.679" y1="169.644" x2="635.11" y2="169.644"/>
				
					<line style="fill:none;stroke:#808184;stroke-width:0.5;stroke-miterlimit:10;" x1="501.679" y1="201.388" x2="635.11" y2="201.388"/>
				
					<line style="fill:none;stroke:#808184;stroke-width:0.5;stroke-miterlimit:10;" x1="501.679" y1="233.133" x2="635.11" y2="233.133"/>
				
					<line style="fill:none;stroke:#808184;stroke-width:0.5;stroke-miterlimit:10;" x1="501.679" y1="264.878" x2="635.11" y2="264.878"/>
				<g>
					<g>
						<g>
							<rect x="512.455" y="290.518" style="fill:none;" width="117.211" height="19.411"/>
							<text transform="matrix(1 0 0 1 525.7526 293.9568)"><tspan x="0" y="0" style="fill:#454B60; font-family:'Raleway-Regular'; font-size:4.7104px;">Lorem Lorem ipsum dolor sit amet, consectetur </tspan><tspan x="-2.444" y="5.652" style="fill:#454B60; font-family:'Raleway-Regular'; font-size:4.7104px;">adipiscing elit. Quisque in cursus massa. Etiam sit </tspan><tspan x="-12.859" y="11.305" style="fill:#454B60; font-family:'Raleway-Regular'; font-size:4.7104px;">amet erat nisl. In euismod turpis vitae semper tempor. </tspan></text>
						</g>
					</g>
				</g>
			</g>
		</g>
		<path style="fill:#FFFFFF;" d="M134.416,57.924c0,2.919-2.366,5.285-5.285,5.285c-2.919,0-5.285-2.366-5.285-5.285
			c0-2.92,2.366-5.287,5.285-5.287C132.049,52.637,134.416,55.003,134.416,57.924z"/>
		<g>
			<g>
				<g>
					<rect x="364.452" y="249.246" style="fill:none;" width="99.708" height="17.052"/>
					<text transform="matrix(1 0 0 1 364.4518 252.6839)"><tspan x="0" y="0" style="fill:#BBBDBF; font-family:'Raleway-Regular'; font-size:4.7104px;">Lorem Lorem ipsum dolor sit amet, </tspan><tspan x="0" y="5.652" style="fill:#BBBDBF; font-family:'Raleway-Regular'; font-size:4.7104px;">consectetur adipiscing elit. Quisque in cursus </tspan><tspan x="0" y="11.305" style="fill:#BBBDBF; font-family:'Raleway-Regular'; font-size:4.7104px;">massa. Etiam sit amet erat nisl. In euismod </tspan></text>
				</g>
			</g>
		</g>
		<g>
			<rect x="353.476" y="111.004" style="fill:#DFE1E3;" width="130.392" height="94.283"/>
			<rect x="353.476" y="110.564" style="fill:#FFFFFF;" width="126.845" height="90.384"/>
			<rect x="353.476" y="111.004" style="fill:#454B60;" width="126.845" height="20.582"/>
			<g>
				
					<text transform="matrix(1 0 0 1 361.5743 123.9671)" style="fill:#E6E7E8; font-family:'Raleway-Regular'; font-size:7.0933px;">Lorem Lorem ipsum </text>
			</g>
			<g>
				
					<line style="fill:none;stroke:#808184;stroke-width:0.5;stroke-miterlimit:10;" x1="365.219" y1="184.204" x2="466.46" y2="184.204"/>
				<g>
					<g>
						<g>
							<rect x="437.062" y="140.616" style="fill:none;" width="27.097" height="7.318"/>
							<text transform="matrix(1 0 0 1 437.0621 142.6868)"><tspan x="0" y="0" style="fill:#A6A8AB; font-family:'Raleway-Regular'; font-size:2.8373px;">Lorem Lorem ipsum </tspan><tspan x="0" y="3.405" style="fill:#A6A8AB; font-family:'Raleway-Regular'; font-size:2.8373px;">dolor sit amet, </tspan></text>
						</g>
					</g>
				</g>
				<g>
					<g>
						<g>
							<rect x="437.062" y="151.358" style="fill:none;" width="27.097" height="7.318"/>
							<text transform="matrix(1 0 0 1 437.0621 153.43)"><tspan x="0" y="0" style="fill:#A6A8AB; font-family:'Raleway-Regular'; font-size:2.8373px;">Lorem Lorem ipsum </tspan><tspan x="0" y="3.405" style="fill:#A6A8AB; font-family:'Raleway-Regular'; font-size:2.8373px;">dolor sit amet, </tspan></text>
						</g>
					</g>
				</g>
				<g>
					<g>
						<g>
							<rect x="437.062" y="162.101" style="fill:none;" width="27.097" height="7.318"/>
							<text transform="matrix(1 0 0 1 437.0621 164.1721)"><tspan x="0" y="0" style="fill:#A6A8AB; font-family:'Raleway-Regular'; font-size:2.8373px;">Lorem Lorem ipsum </tspan><tspan x="0" y="3.405" style="fill:#A6A8AB; font-family:'Raleway-Regular'; font-size:2.8373px;">dolor sit amet, </tspan></text>
						</g>
					</g>
				</g>
				<g>
					<g>
						<g>
							<rect x="437.062" y="172.843" style="fill:none;" width="27.097" height="7.318"/>
							<text transform="matrix(1 0 0 1 437.0621 174.9143)"><tspan x="0" y="0" style="fill:#A6A8AB; font-family:'Raleway-Regular'; font-size:2.8373px;">Lorem Lorem ipsum </tspan><tspan x="0" y="3.405" style="fill:#A6A8AB; font-family:'Raleway-Regular'; font-size:2.8373px;">dolor sit amet, </tspan></text>
						</g>
					</g>
				</g>
				<rect x="430.635" y="142.528" style="fill:#657B8F;" width="2.602" height="2.602"/>
				<rect x="430.635" y="152.918" style="fill:#D54E54;" width="2.602" height="2.602"/>
				<rect x="430.635" y="163.159" style="fill:#EE9F4F;" width="2.602" height="2.601"/>
				<rect x="430.635" y="174.817" style="fill:#00A0CA;" width="2.602" height="2.601"/>
				<g>
					<g>
						<g>
							<rect x="372.343" y="158.97" style="fill:#57B847;" width="7.332" height="19.102"/>
							<g>
								<rect x="410.062" y="139.868" style="fill:#698E65;" width="7.332" height="38.204"/>
								<rect x="397.491" y="146.89" style="fill:#7F59A4;" width="7.332" height="31.181"/>
								<rect x="384.917" y="153.334" style="fill:#EE4F81;" width="7.332" height="24.738"/>
							</g>
						</g>
					</g>
					<g>
						
							<text transform="matrix(1 0 0 1 371.7545 191.4954)" style="fill:#454B60; font-family:'Raleway-Regular'; font-size:2.8373px;">Lorem</text>
					</g>
					<g>
						
							<text transform="matrix(1 0 0 1 384.3277 191.4954)" style="fill:#454B60; font-family:'Raleway-Regular'; font-size:2.8373px;">Lorem</text>
					</g>
					<g>
						
							<text transform="matrix(1 0 0 1 396.901 191.4954)" style="fill:#454B60; font-family:'Raleway-Regular'; font-size:2.8373px;">Lorem</text>
					</g>
					<g>
						
							<text transform="matrix(1 0 0 1 409.4727 191.4954)" style="fill:#454B60; font-family:'Raleway-Regular'; font-size:2.8373px;">Lorem</text>
					</g>
				</g>
			</g>
		</g>
		<g>
			<g>
				<g>
					<path style="fill:#ED823A;" d="M377.933,294.022c-5.537,2.341-11.924-0.249-14.266-5.788
						c-2.341-5.538,0.25-11.926,5.787-14.267c5.539-2.341,11.927,0.251,14.268,5.788
						C386.064,285.294,383.472,291.681,377.933,294.022z"/>
					<path style="fill:#5650A1;" d="M369.454,273.967l8.479,20.055c5.539-2.341,8.131-8.728,5.79-14.267
						C381.381,274.217,374.993,271.625,369.454,273.967z"/>
					<path style="fill:#A96172;" d="M377.933,294.022c5.539-2.341,8.131-8.728,5.79-14.267l-20.055,8.479
						C366.009,293.772,372.396,296.363,377.933,294.022z"/>
					<path style="fill:#CCDB2C;" d="M378.71,295.858c6.55-2.77,9.617-10.326,6.847-16.878l-11.862,5.015L378.71,295.858z"/>
				</g>
				<g>
					<path style="opacity:0.4;fill:#39629E;" d="M376.373,290.578h-5.677c-0.4,0-0.772-0.126-1.077-0.338
						c-0.49-0.341-0.812-0.909-0.812-1.552v-5.677c0-0.485,0.183-0.927,0.482-1.261c0.346-0.385,0.848-0.629,1.406-0.629h5.677
						c0.608,0,1.148,0.288,1.495,0.734c0.246,0.32,0.393,0.721,0.393,1.156v5.677c0,0.693-0.373,1.3-0.931,1.628
						C377.05,290.481,376.723,290.578,376.373,290.578z"/>
					<path style="fill:#FFFFFF;" d="M376.843,290.248h-5.677c-0.4,0-0.772-0.125-1.078-0.337c-0.49-0.342-0.812-0.91-0.812-1.552
						v-5.677c0-0.485,0.183-0.927,0.484-1.262c0.345-0.385,0.848-0.626,1.406-0.626h5.677c0.608,0,1.15,0.287,1.495,0.733
						c0.247,0.32,0.395,0.721,0.395,1.155v5.677c0,0.693-0.374,1.299-0.931,1.628C377.519,290.154,377.192,290.248,376.843,290.248z
						"/>
				</g>
			</g>
			<g>
				
					<text transform="matrix(1 0 0 1 371.9415 287.2058)" style="fill:#BBBDBF; font-family:'Raleway-Regular'; font-size:4.7104px;">01</text>
			</g>
		</g>
		<g>
			<g>
				<g>
					<path style="fill:#ED823A;" d="M415.926,293.507c-5.197,3.026-11.86,1.264-14.886-3.932c-3.025-5.195-1.265-11.86,3.932-14.885
						c5.197-3.026,11.862-1.266,14.885,3.929C422.883,283.816,421.123,290.481,415.926,293.507z"/>
					<path style="fill:#CCDB2C;" d="M415.926,293.507c1.847-1.075,3.249-2.613,4.166-4.378l-9.644-5.032l-10.525-2.779
						c-0.712,2.693-0.396,5.658,1.117,8.257C404.066,294.77,410.731,296.531,415.926,293.507z"/>
					<path style="fill:#5650A1;" d="M406.917,296.671c3.181,0.84,6.683,0.465,9.751-1.319c6.134-3.572,8.214-11.442,4.641-17.578
						l-11.108,6.469L406.917,296.671z"/>
				</g>
				<g>
					<path style="opacity:0.4;fill:#39629E;" d="M413.056,290.421h-5.677c-0.4,0-0.772-0.126-1.076-0.337
						c-0.491-0.342-0.812-0.909-0.812-1.553v-5.676c0-0.485,0.183-0.928,0.482-1.262c0.346-0.385,0.848-0.628,1.406-0.628h5.677
						c0.608,0,1.149,0.288,1.495,0.734c0.246,0.319,0.393,0.72,0.393,1.155v5.676c0,0.694-0.374,1.301-0.931,1.628
						C413.733,290.326,413.406,290.421,413.056,290.421z"/>
					<path style="fill:#FFFFFF;" d="M413.525,290.093h-5.677c-0.4,0-0.772-0.125-1.078-0.338c-0.49-0.341-0.812-0.909-0.812-1.552
						v-5.677c0-0.485,0.183-0.927,0.483-1.261c0.345-0.385,0.848-0.628,1.406-0.628h5.677c0.607,0,1.15,0.287,1.495,0.733
						c0.247,0.322,0.393,0.72,0.393,1.155v5.677c0,0.693-0.373,1.3-0.93,1.629C414.202,289.997,413.874,290.093,413.525,290.093z"/>
				</g>
			</g>
			<g>
				
					<text transform="matrix(1 0 0 1 408.1861 287.0496)" style="fill:#BBBDBF; font-family:'Raleway-Regular'; font-size:4.7104px;">02</text>
			</g>
		</g>
		<g>
			<g>
				<g>
					<path style="fill:#A96172;" d="M455.428,274.707c5.119,3.153,6.711,9.86,3.558,14.979c-3.153,5.118-9.861,6.712-14.979,3.558
						c-5.121-3.153-6.712-9.861-3.558-14.979C443.603,273.144,450.308,271.552,455.428,274.707z"/>
					<path style="fill:#5650A1;" d="M446.576,273.562c-2.46,0.743-4.673,2.341-6.126,4.702l9.576,6.302L446.576,273.562z"/>
					<path style="fill:#CCDB2C;" d="M460.535,282.854c-0.338-3.246-2.114-6.305-5.107-8.147c-3.331-2.052-7.326-2.084-10.583-0.457
						l5.18,10.317L460.535,282.854z"/>
					<path style="fill:#ED823A;" d="M453.216,296.482c3.038-0.864,5.778-2.811,7.566-5.714c1.732-2.808,2.261-6.011,1.757-9.029
						l-12.539,2.869L453.216,296.482z"/>
				</g>
				<g>
					<path style="opacity:0.4;fill:#39629E;" d="M452.872,288.533h-5.676c-0.402,0-0.773-0.126-1.078-0.338
						c-0.49-0.341-0.812-0.909-0.812-1.552v-5.677c0-0.485,0.183-0.927,0.482-1.261c0.346-0.385,0.848-0.629,1.408-0.629h5.676
						c0.608,0,1.15,0.288,1.495,0.734c0.247,0.32,0.394,0.72,0.394,1.156v5.677c0,0.693-0.373,1.3-0.93,1.628
						C453.55,288.436,453.223,288.533,452.872,288.533z"/>
					<path style="fill:#FFFFFF;" d="M453.342,288.203h-5.677c-0.4,0-0.772-0.125-1.078-0.337c-0.49-0.342-0.812-0.91-0.812-1.552
						v-5.677c0-0.485,0.183-0.927,0.484-1.262c0.346-0.385,0.848-0.626,1.406-0.626h5.677c0.608,0,1.15,0.287,1.495,0.733
						c0.247,0.32,0.393,0.72,0.393,1.155v5.677c0,0.693-0.373,1.299-0.93,1.628C454.018,288.109,453.691,288.203,453.342,288.203z"
						/>
				</g>
			</g>
			<g>
				<text transform="matrix(1 0 0 1 448.0489 285.159)" style="fill:#BBBDBF; font-family:'Raleway-Regular'; font-size:4.7104px;">03</text>
			</g>
		</g>
		<g>
			<rect x="115.142" y="110.63" style="fill:#DFE1E3;" width="227.926" height="204.92"/>
			<rect x="115.142" y="111.004" style="fill:#FFFFFF;" width="222.048" height="199.634"/>
			<rect x="115.142" y="110.63" style="fill:#454B60;" width="222.048" height="20.956"/>
			<g>
				
					<text transform="matrix(1 0 0 1 123.4547 123.9671)" style="fill:#E6E7E8; font-family:'Raleway-Regular'; font-size:7.0933px;">Lorem Lorem ipsum </text>
			</g>
			<g>
				<text transform="matrix(1 0 0 1 256.2779 160.9016)" style="fill:#929497; font-family:'Raleway-Bold'; font-size:7.0933px;">Lorem Lorem ipsum </text>
			</g>
			<g>
				<g>
					<g>
						<rect x="276.705" y="171.624" style="fill:none;" width="48.235" height="88.608"/>
						<text transform="matrix(1 0 0 1 280.6114 175.0628)"><tspan x="0" y="0" style="fill:#BBBDBF; font-family:'Raleway-Regular'; font-size:4.7104px;">Lorem Lorem ipsum </tspan><tspan x="13.278" y="5.652" style="fill:#BBBDBF; font-family:'Raleway-Regular'; font-size:4.7104px;">dolor sit amet, </tspan><tspan x="18.196" y="11.305" style="fill:#BBBDBF; font-family:'Raleway-Regular'; font-size:4.7104px;">consectetur </tspan><tspan x="13.584" y="16.958" style="fill:#BBBDBF; font-family:'Raleway-Regular'; font-size:4.7104px;">adipiscing elit. </tspan><tspan x="5.671" y="22.61" style="fill:#BBBDBF; font-family:'Raleway-Regular'; font-size:4.7104px;">Quisque in cursus </tspan><tspan x="-2.666" y="28.262" style="fill:#BBBDBF; font-family:'Raleway-Regular'; font-size:4.7104px;">massa. Etiam sit amet </tspan><tspan x="1.102" y="33.915" style="fill:#BBBDBF; font-family:'Raleway-Regular'; font-size:4.7104px;">erat nisl. In euismod </tspan><tspan x="2.548" y="39.567" style="fill:#BBBDBF; font-family:'Raleway-Regular'; font-size:4.7104px;">turpis vitae semper </tspan><tspan x="0.198" y="45.219" style="fill:#BBBDBF; font-family:'Raleway-Regular'; font-size:4.7104px;">tempor. ipsum dolor </tspan><tspan x="-1.385" y="50.872" style="fill:#BBBDBF; font-family:'Raleway-Regular'; font-size:4.7104px;">sit amet, consectetur </tspan><tspan x="13.584" y="56.524" style="fill:#BBBDBF; font-family:'Raleway-Regular'; font-size:4.7104px;">adipiscing elit. </tspan><tspan x="5.671" y="62.177" style="fill:#BBBDBF; font-family:'Raleway-Regular'; font-size:4.7104px;">Quisque in cursus </tspan><tspan x="-2.666" y="67.829" style="fill:#BBBDBF; font-family:'Raleway-Regular'; font-size:4.7104px;">massa. Etiam sit amet </tspan><tspan x="1.102" y="73.481" style="fill:#BBBDBF; font-family:'Raleway-Regular'; font-size:4.7104px;">erat nisl. In euismod </tspan><tspan x="2.548" y="79.134" style="fill:#BBBDBF; font-family:'Raleway-Regular'; font-size:4.7104px;">turpis vitae semper </tspan><tspan x="27.404" y="84.786" style="fill:#BBBDBF; font-family:'Raleway-Regular'; font-size:4.7104px;">tempor. </tspan></text>
					</g>
				</g>
			</g>
			<g>
				<g>
					<g>
						<path style="fill:#00A0CA;" d="M194.21,247.383v-19.986c-14.689,0-26.597-11.906-26.597-26.597
							c0-14.688,11.908-26.596,26.597-26.596c14.691,0,26.597,11.908,26.597,26.596c0,5.647-1.77,10.87-4.768,15.176h0.011
							l18.041,8.908l0,0c4.255-7.028,6.703-15.269,6.703-24.084c0-25.726-20.856-46.583-46.583-46.583s-46.583,20.857-46.583,46.583
							C147.627,226.531,168.483,247.383,194.21,247.383z"/>
						<g>
							<path style="fill:#EE4F81;" d="M238.061,232.083l-18.041-8.906l-0.01-0.003c-4.806,6.899-12.786,11.424-21.83,11.424v19.986
								C215.094,254.585,229.901,245.572,238.061,232.083z"/>
						</g>
						<path style="fill:#698E65;" d="M147.627,200.801c0,8.487,2.28,16.439,6.249,23.294h27.502
							c-8.204-4.53-13.765-13.258-13.765-23.294c0-14.688,11.908-26.596,26.597-26.596v-19.987
							C168.483,154.218,147.627,175.075,147.627,200.801z"/>
						<path style="fill:#7F59A4;" d="M194.21,247.383v-19.986c-14.689,0-26.597-11.906-26.597-26.597h-19.986
							C147.627,226.531,168.483,247.383,194.21,247.383z"/>
					</g>
					<g>
						
							<text transform="matrix(1 0 0 1 128.7008 234.9632)" style="fill:#929497; font-family:'Raleway-Regular'; font-size:4.7104px;">Lorem</text>
					</g>
					<g>
						
							<text transform="matrix(1 0 0 1 240.5636 251.7639)" style="fill:#929497; font-family:'Raleway-Regular'; font-size:4.7104px;">Lorem</text>
					</g>
					<g>
						
							<text transform="matrix(1 0 0 1 247.0665 181.3518)" style="fill:#929497; font-family:'Raleway-Regular'; font-size:4.7104px;">Lorem</text>
					</g>
					<g>
						
							<text transform="matrix(1 0 0 1 137.7442 163.1175)" style="fill:#929497; font-family:'Raleway-Regular'; font-size:4.7104px;">Lorem</text>
					</g>
				</g>
				
					<text transform="matrix(1 0 0 1 179.9449 207.2845)" style="fill:#231F20; font-family:'Raleway-Regular'; font-size:18.0907px;">25%</text>
			</g>
			<g>
				<path style="fill:#EE4F81;" d="M251.907,281.778c0,5.483-4.446,9.929-9.929,9.929h-88.756c-5.483,0-9.928-4.446-9.928-9.929l0,0
					c0-5.484,4.444-9.928,9.928-9.928h88.756C247.461,271.85,251.907,276.294,251.907,281.778L251.907,281.778z"/>
				
					<text transform="matrix(1 0 0 1 163.6363 283.5281)" style="fill:#FFFFFF; font-family:'Raleway-Regular'; font-size:7.0933px;">Lorem Lorem ipsum </text>
			</g>
		</g>
		<g>
			<rect x="115.142" y="326.64" style="fill:#DFE1E3;" width="368.726" height="94.283"/>
			<rect x="115.142" y="326.64" style="fill:#FFFFFF;" width="365.18" height="90.384"/>
			<rect x="115.142" y="326.64" style="fill:#454B60;" width="365.18" height="20.582"/>
			<g>
				
					<text transform="matrix(1 0 0 1 123.4547 339.7664)" style="fill:#E6E7E8; font-family:'Raleway-Regular'; font-size:7.0933px;">Lorem Lorem ipsum </text>
			</g>
			<g>
				<linearGradient id="SVGID_1_" gradientUnits="userSpaceOnUse" x1="151.8898" y1="383.9885" x2="458.2685" y2="383.9885">
					<stop  offset="0.1211" style="stop-color:#EE9F4F"/>
					<stop  offset="0.6105" style="stop-color:#14C2F3"/>
					<stop  offset="0.6679" style="stop-color:#17C1F0"/>
					<stop  offset="0.7159" style="stop-color:#22C0E9"/>
					<stop  offset="0.7607" style="stop-color:#33BDDC"/>
					<stop  offset="0.8035" style="stop-color:#4CB9C9"/>
					<stop  offset="0.8448" style="stop-color:#6BB4B1"/>
					<stop  offset="0.885" style="stop-color:#92AE94"/>
					<stop  offset="0.9237" style="stop-color:#BFA672"/>
					<stop  offset="0.9579" style="stop-color:#EE9F4F"/>
				</linearGradient>
				<path style="fill:url(#SVGID_1_);" d="M151.89,400.385c0,0,7.375-14.998,24.667-10.233c21.418,5.906,15.055,5.101,30.66-1.704
					c15.605-6.808,24.337-13.519,39.832-8.036c15.496,5.483,37.474,16.728,55.567,8.977c18.094-7.75,56.073-31.451,88.864-17.473
					c32.791,13.979,66.788,0,66.788,0v28.467H151.89z"/>
				<g>
					
						<text transform="matrix(1 0 0 1 123.4005 367.5906)" style="fill:#929497; font-family:'Raleway-Regular'; font-size:4.7104px;">Lorem</text>
				</g>
				<g>
					
						<text transform="matrix(1 0 0 1 123.4005 383.989)" style="fill:#929497; font-family:'Raleway-Regular'; font-size:4.7104px;">Lorem</text>
				</g>
				<g>
					
						<text transform="matrix(1 0 0 1 123.4005 400.3836)" style="fill:#929497; font-family:'Raleway-Regular'; font-size:4.7104px;">Lorem</text>
				</g>
				<polyline style="fill:none;stroke:#808184;stroke-width:0.5;stroke-miterlimit:10;" points="144.712,363.603 144.712,400.385 
					471.302,400.385 				"/>
				
					<line style="fill:none;stroke:#808184;stroke-width:0.5;stroke-miterlimit:10;" x1="144.712" y1="381.992" x2="471.302" y2="381.992"/>
				
					<line style="fill:none;stroke:#808184;stroke-width:0.5;stroke-miterlimit:10;" x1="144.712" y1="367.591" x2="471.302" y2="367.591"/>
			</g>
		</g>
		<g>
			<rect x="501.679" y="326.64" style="fill:#DFE1E3;" width="135.654" height="94.283"/>
			<rect x="501.679" y="326.64" style="fill:#FFFFFF;" width="133.431" height="90.384"/>
			<g>
				<text transform="matrix(1 0 0 1 515.6603 339.7683)" style="fill:#929497; font-family:'Raleway-Regular'; font-size:4.256px;">Lorem Lorem ipsum </text>
			</g>
			<g>
				<text transform="matrix(1 0 0 1 614.0197 339.7683)" style="fill:#929497; font-family:'Raleway-Regular'; font-size:4.256px;">50%</text>
			</g>
			<g>
				<text transform="matrix(1 0 0 1 614.0197 367.5906)" style="fill:#929497; font-family:'Raleway-Regular'; font-size:4.256px;">50%</text>
			</g>
			<g>
				<text transform="matrix(1 0 0 1 614.0197 395.4148)" style="fill:#929497; font-family:'Raleway-Regular'; font-size:4.256px;">50%</text>
			</g>
			<g>
				<text transform="matrix(1 0 0 1 515.6603 367.5906)" style="fill:#929497; font-family:'Raleway-Regular'; font-size:4.256px;">Lorem Lorem ipsum </text>
			</g>
			<g>
				<text transform="matrix(1 0 0 1 515.6603 395.4148)" style="fill:#929497; font-family:'Raleway-Regular'; font-size:4.256px;">Lorem Lorem ipsum </text>
			</g>
			<g>
				<g>
					<path style="fill:#DFE1E3;" d="M622.863,349.855c0,1.455-1.179,2.634-2.634,2.634H518.295c-1.455,0-2.635-1.179-2.635-2.634
						l0,0c0-1.456,1.18-2.634,2.635-2.634h101.934C621.684,347.222,622.863,348.399,622.863,349.855L622.863,349.855z"/>
				</g>
				<path style="fill:#EE4F81;" d="M571.792,347.222h-53.496c-1.455,0-2.635,1.178-2.635,2.634c0,1.455,1.18,2.634,2.635,2.634
					h53.496V347.222z"/>
			</g>
			<g>
				<g>
					<path style="fill:#DFE1E3;" d="M622.863,403.019c0,1.455-1.179,2.634-2.634,2.634H518.295c-1.455,0-2.635-1.179-2.635-2.634
						l0,0c0-1.456,1.18-2.634,2.635-2.634h101.934C621.684,400.385,622.863,401.563,622.863,403.019L622.863,403.019z"/>
				</g>
				<path style="fill:#EE4F81;" d="M571.792,400.385h-53.496c-1.455,0-2.635,1.178-2.635,2.634c0,1.455,1.18,2.634,2.635,2.634
					h53.496V400.385z"/>
			</g>
			<g>
				<g>
					<path style="fill:#DFE1E3;" d="M622.863,376.415c0,1.455-1.179,2.635-2.634,2.635H518.295c-1.455,0-2.635-1.18-2.635-2.635l0,0
						c0-1.455,1.18-2.633,2.635-2.633h101.934C621.684,373.781,622.863,374.96,622.863,376.415L622.863,376.415z"/>
				</g>
				<path style="fill:#EE4F81;" d="M571.792,373.781h-53.496c-1.455,0-2.635,1.179-2.635,2.633c0,1.455,1.18,2.635,2.635,2.635
					h53.496V373.781z"/>
			</g>
		</g>
	</g>
</g>
<g id="DESIGNED_BY_FREEPIK">
	<g>
		<g id="XMLID_309_">
			<g id="XMLID_328_">
				<path id="XMLID_336_" style="fill:#15171E;" d="M385.104,460.946c-0.432,0.443-0.803,0.932-1.108,1.453l-0.465-0.24
					c-0.067-0.299-0.35-0.504-0.659-0.467c-0.331,0.039-0.567,0.338-0.529,0.67c0.039,0.33,0.339,0.568,0.67,0.529
					c0.065-0.008,0.127-0.027,0.184-0.053l0.451,0.234c-0.251,0.553-0.433,1.139-0.539,1.744l0.747,0.131
					c0.23-1.307,0.85-2.506,1.792-3.473L385.104,460.946z"/>
				<path id="XMLID_335_" style="fill:#15171E;" d="M390.592,458.644c-0.171,0-0.341,0.008-0.51,0.019l-0.073-0.626
					c0.188-0.15,0.295-0.391,0.266-0.645c-0.046-0.395-0.402-0.676-0.795-0.629c-0.393,0.047-0.674,0.402-0.628,0.795
					c0.03,0.254,0.189,0.461,0.404,0.564l0.074,0.625c-0.714,0.115-1.403,0.331-2.06,0.645l0.327,0.684
					c0.934-0.445,1.941-0.672,2.995-0.672c0.497,0,0.993,0.053,1.475,0.156l0.161-0.74
					C391.692,458.704,391.142,458.644,390.592,458.644z"/>
				<path id="XMLID_334_" style="fill:#15171E;" d="M397.194,461.192c0.331-0.041,0.566-0.342,0.525-0.674
					c-0.04-0.33-0.341-0.564-0.672-0.524c-0.309,0.038-0.535,0.304-0.53,0.608l-0.416,0.363c-0.418-0.43-0.89-0.813-1.408-1.139
					l-0.404,0.641c1.134,0.715,2.02,1.727,2.563,2.926l0.691-0.313c-0.251-0.555-0.568-1.072-0.942-1.545l0.402-0.352
					C397.065,461.196,397.129,461.2,397.194,461.192z"/>
				<path id="XMLID_333_" style="fill:#15171E;" d="M390.044,468.853c-0.386,0.023-0.775,0.035-1.157,0.035
					c-0.88,0-1.733-0.06-2.479-0.18c-0.39-0.063-0.846-0.154-1.27-0.291c1.046,1.859,3.069,3.125,5.388,3.125
					c2.855,0,5.262-1.916,5.95-4.504c-0.682,0.449-1.505,0.824-2.458,1.123C392.839,468.528,391.463,468.767,390.044,468.853z"/>
				<path id="XMLID_329_" style="fill:#15171E;" d="M390.592,460.161c-3.352,0-6.08,2.666-6.08,5.943
					c0,0.426,0.046,0.849,0.137,1.262c0.673,0.482,2.706,0.889,5.348,0.73c2.879-0.174,5.297-0.957,6.672-2.158
					c-0.005-0.195-0.021-0.391-0.045-0.582C396.244,462.394,393.65,460.161,390.592,460.161z M388.433,466.675
					c-1.02,0-1.85-0.83-1.85-1.85c0-1.02,0.83-1.85,1.85-1.85c1.02,0,1.85,0.83,1.85,1.85
					C390.282,465.845,389.452,466.675,388.433,466.675z M393.17,465.767c-0.75,0-1.36-0.609-1.36-1.359s0.61-1.361,1.36-1.361
					s1.36,0.611,1.36,1.361S393.92,465.767,393.17,465.767z"/>
			</g>
			<path id="XMLID_326_" style="fill:#15171E;" d="M406.595,462.028c-0.294-0.116-0.805-0.309-1.382-0.238
				c-0.551,0.068-0.844,0.342-0.844,1.008v0.865h2.228v1.717h-2.228v5.455h-1.932v-5.455h-1.34v-1.717h1.34v-0.889
				c0-1.68,0.896-2.783,2.568-2.783c0.643,0,1.157,0.123,1.59,0.309L406.595,462.028z"/>
			<path id="XMLID_324_" style="fill:#15171E;" d="M411.298,465.36c-0.177-0.031-0.358-0.047-0.526-0.047
				c-0.896,0-1.51,0.547-1.51,1.613v3.908h-1.932v-7.172h1.872v0.785c0.452-0.674,1.14-0.979,2.021-0.979
				c0.415,0,0.848,0.129,1.094,0.338L411.298,465.36z"/>
			<path id="XMLID_321_" style="fill:#15171E;" d="M418.965,467.237c0,0.223-0.015,0.488-0.037,0.652h-5.085
				c0.208,1.035,0.933,1.486,1.843,1.486c0.622,0,1.295-0.25,1.813-0.688l1.133,1.244c-0.814,0.746-1.851,1.088-3.057,1.088
				c-2.198,0-3.723-1.496-3.723-3.754c0-2.256,1.48-3.797,3.626-3.797C417.544,463.47,418.957,465.003,418.965,467.237z
				 M413.851,466.571h3.175c-0.177-0.918-0.733-1.435-1.562-1.435C414.554,465.136,414.021,465.685,413.851,466.571z"/>
			<path id="XMLID_318_" style="fill:#15171E;" d="M426.619,467.237c0,0.223-0.015,0.488-0.037,0.652h-5.085
				c0.207,1.035,0.933,1.486,1.843,1.486c0.622,0,1.295-0.25,1.813-0.688l1.132,1.244c-0.814,0.746-1.85,1.088-3.057,1.088
				c-2.198,0-3.723-1.496-3.723-3.754c0-2.256,1.48-3.797,3.626-3.797C425.197,463.47,426.611,465.003,426.619,467.237z
				 M421.504,466.571h3.175c-0.178-0.918-0.733-1.435-1.561-1.435C422.207,465.136,421.674,465.685,421.504,466.571z"/>
			<path id="XMLID_315_" style="fill:#15171E;" d="M434.964,467.245c0,2.154-1.495,3.775-3.471,3.775
				c-0.962,0-1.643-0.379-2.109-0.934v3.709h-1.924v-10.133h1.887v0.791c0.466-0.584,1.155-0.984,2.139-0.984
				C433.469,463.47,434.964,465.091,434.964,467.245z M429.287,467.245c0,1.133,0.748,1.977,1.843,1.977
				c1.14,0,1.851-0.881,1.851-1.977s-0.711-1.977-1.851-1.977C430.035,465.269,429.287,466.112,429.287,467.245z"/>
			<path id="XMLID_312_" style="fill:#15171E;" d="M438.067,461.317c0,0.695-0.54,1.228-1.236,1.228s-1.229-0.533-1.229-1.228
				c0-0.697,0.533-1.244,1.229-1.244S438.067,460.62,438.067,461.317z M437.809,470.835h-1.932v-7.172h1.932V470.835z"/>
			<path id="XMLID_310_" style="fill:#15171E;" d="M441.032,466.216l2.702-2.553h2.368l-3.479,3.375l3.501,3.797h-2.376l-2.716-2.9
				v2.9h-1.932v-10.658h1.932V466.216z"/>
		</g>
		<g>
			<path style="fill:#15171E;" d="M309.413,470.771v-1.055c-0.527,0.717-1.392,1.23-2.388,1.23c-1.846,0-3.149-1.406-3.149-3.707
				c0-2.256,1.289-3.721,3.149-3.721c0.952,0,1.816,0.469,2.388,1.246v-3.766h1.099v9.771H309.413z M309.413,468.851v-3.207
				c-0.396-0.615-1.245-1.143-2.124-1.143c-1.421,0-2.271,1.172-2.271,2.738c0,1.568,0.85,2.725,2.271,2.725
				C308.168,469.964,309.017,469.466,309.413,468.851z"/>
			<path style="fill:#15171E;" d="M311.932,467.226c0-2.051,1.464-3.707,3.486-3.707c2.139,0,3.398,1.67,3.398,3.795v0.277h-5.728
				c0.088,1.334,1.025,2.447,2.549,2.447c0.806,0,1.626-0.322,2.183-0.895l0.527,0.719c-0.703,0.703-1.655,1.084-2.813,1.084
				C313.44,470.946,311.932,469.437,311.932,467.226z M315.403,464.427c-1.509,0-2.256,1.275-2.314,2.359h4.643
				C317.718,465.732,317.015,464.427,315.403,464.427z"/>
			<path style="fill:#15171E;" d="M319.607,469.833l0.571-0.791c0.469,0.541,1.362,1.01,2.329,1.01c1.084,0,1.67-0.512,1.67-1.215
				c0-1.715-4.38-0.66-4.38-3.281c0-1.1,0.952-2.037,2.637-2.037c1.201,0,2.051,0.455,2.622,1.025l-0.513,0.762
				c-0.424-0.512-1.201-0.893-2.109-0.893c-0.967,0-1.567,0.482-1.567,1.113c0,1.553,4.379,0.527,4.379,3.281
				c0,1.186-0.952,2.139-2.783,2.139C321.306,470.946,320.325,470.595,319.607,469.833z"/>
			<path style="fill:#15171E;" d="M326.477,461.952c0-0.41,0.337-0.746,0.732-0.746c0.41,0,0.747,0.336,0.747,0.746
				c0,0.41-0.336,0.732-0.747,0.732C326.814,462.685,326.477,462.362,326.477,461.952z M326.667,470.771v-7.076h1.099v7.076H326.667
				z"/>
			<path style="fill:#15171E;" d="M329.582,472.587l0.557-0.82c0.586,0.703,1.289,0.967,2.3,0.967c1.172,0,2.27-0.571,2.27-2.125
				v-1.01c-0.512,0.717-1.376,1.26-2.373,1.26c-1.845,0-3.149-1.377-3.149-3.662c0-2.271,1.289-3.678,3.149-3.678
				c0.952,0,1.802,0.469,2.373,1.246v-1.07h1.099v6.871c0,2.344-1.641,3.076-3.369,3.076
				C331.237,473.642,330.417,473.407,329.582,472.587z M334.708,468.733v-3.09c-0.381-0.615-1.23-1.143-2.109-1.143
				c-1.421,0-2.271,1.127-2.271,2.695c0,1.553,0.849,2.695,2.271,2.695C333.478,469.892,334.328,469.349,334.708,468.733z"/>
			<path style="fill:#15171E;" d="M342.413,470.771v-4.629c0-1.246-0.629-1.641-1.582-1.641c-0.865,0-1.685,0.527-2.095,1.098v5.172
				h-1.099v-7.076h1.099v1.025c0.498-0.586,1.464-1.201,2.519-1.201c1.48,0,2.256,0.748,2.256,2.285v4.967H342.413z"/>
			<path style="fill:#15171E;" d="M344.933,467.226c0-2.051,1.465-3.707,3.486-3.707c2.138,0,3.398,1.67,3.398,3.795v0.277h-5.728
				c0.088,1.334,1.025,2.447,2.549,2.447c0.806,0,1.625-0.322,2.183-0.895l0.527,0.719c-0.703,0.703-1.655,1.084-2.813,1.084
				C346.441,470.946,344.933,469.437,344.933,467.226z M348.404,464.427c-1.509,0-2.256,1.275-2.314,2.359h4.643
				C350.718,465.732,350.015,464.427,348.404,464.427z"/>
			<path style="fill:#15171E;" d="M358.35,470.771v-1.055c-0.527,0.717-1.392,1.23-2.388,1.23c-1.845,0-3.149-1.406-3.149-3.707
				c0-2.256,1.289-3.721,3.149-3.721c0.952,0,1.817,0.469,2.388,1.246v-3.766h1.099v9.771H358.35z M358.35,468.851v-3.207
				c-0.396-0.615-1.245-1.143-2.124-1.143c-1.421,0-2.271,1.172-2.271,2.738c0,1.568,0.85,2.725,2.271,2.725
				C357.105,469.964,357.954,469.466,358.35,468.851z"/>
			<path style="fill:#15171E;" d="M364.692,470.771v-9.771h1.099v3.766c0.572-0.777,1.421-1.246,2.388-1.246
				c1.846,0,3.149,1.465,3.149,3.721c0,2.301-1.304,3.707-3.149,3.707c-0.996,0-1.86-0.514-2.388-1.23v1.055H364.692z
				 M367.9,469.964c1.435,0,2.285-1.156,2.285-2.725c0-1.566-0.85-2.738-2.285-2.738c-0.864,0-1.729,0.527-2.109,1.143v3.207
				C366.171,469.466,367.036,469.964,367.9,469.964z"/>
			<path style="fill:#15171E;" d="M372.528,472.542c0.161,0.074,0.425,0.118,0.601,0.118c0.483,0,0.805-0.161,1.055-0.747
				l0.469-1.07l-2.959-7.148h1.187l2.358,5.801l2.344-5.801h1.201l-3.545,8.512c-0.425,1.025-1.143,1.42-2.08,1.436
				c-0.234,0-0.601-0.045-0.805-0.104L372.528,472.542z"/>
		</g>
	</g>
</g>
</svg>
